<svg width="24" height="24" viewBox="0 0 24 24" fill="none" xmlns="http://www.w3.org/2000/svg">
<path d="M12.3983 0.967054C12.844 0.737913 13.35 0.652955 13.8462 0.723951C14.3423 0.794944 14.8042 1.01838 15.1677 1.3633C15.5353 1.7198 15.7877 2.17736 15.8908 2.67959L16.4756 5.98136C16.6283 6.80981 16.9717 7.59146 17.4785 8.26458C17.9854 8.93771 18.6419 9.48388 19.3961 9.85996L22.4513 11.3446C22.9005 11.5823 23.2637 11.9548 23.4898 12.4097C23.7159 12.8646 23.7935 13.3789 23.7116 13.8802C23.6298 14.3815 23.3926 14.8444 23.0336 15.2037C22.6745 15.5631 22.2117 15.8008 21.7102 15.8833L18.4016 16.4689C17.5723 16.621 16.7898 16.9638 16.1159 17.4702C15.4421 17.9766 14.8953 18.6327 14.5189 19.3866L13.0303 22.4322C12.7967 22.8789 12.4297 23.2417 11.9801 23.4701C11.5306 23.6986 11.021 23.7813 10.5222 23.7068C10.0234 23.6323 9.5602 23.4043 9.19704 23.0545C8.83389 22.7047 8.58883 22.2505 8.49598 21.7551L7.89688 18.388C7.74113 17.5809 7.4042 16.8195 6.91144 16.1613C6.41868 15.5031 5.78295 14.9652 5.05211 14.588L1.99824 13.1107C1.55148 12.8768 1.18863 12.5098 0.960059 12.0606C0.731487 11.6113 0.648533 11.1021 0.722716 10.6036C0.796899 10.1051 1.02454 9.64216 1.37403 9.27892C1.72352 8.91568 2.17752 8.67022 2.673 8.57661L5.97833 7.99765C6.81174 7.84548 7.59775 7.49995 8.27313 6.98885C8.94852 6.47774 9.49442 5.81534 9.86693 5.05492L11.3565 2.00247C11.5881 1.55666 11.9533 1.19528 12.3983 0.967054Z" fill="#9547A5"/>
</svg>
