<svg width="12" height="12" viewBox="0 0 12 12" fill="none" xmlns="http://www.w3.org/2000/svg">
<path d="M4.95145 0.868865C5.14981 0.728891 5.3868 0.654022 5.62962 0.654627C5.87244 0.655231 6.10906 0.73128 6.30672 0.87224C6.50708 1.01848 6.65904 1.22097 6.74234 1.45495L7.2455 2.99947C7.37462 3.38661 7.59203 3.73844 7.88056 4.02718C8.1691 4.31593 8.52086 4.53368 8.90806 4.66324L10.4738 5.16945C10.7053 5.25321 10.9047 5.40745 11.0438 5.61044C11.183 5.81342 11.2549 6.05492 11.2494 6.3009C11.2439 6.54689 11.1613 6.78495 11.0133 6.98156C10.8653 7.17817 10.6593 7.32341 10.4243 7.39681L8.87654 7.90077C8.48896 8.02966 8.13668 8.24687 7.84755 8.53523C7.55842 8.82359 7.34036 9.17521 7.2106 9.56229L6.70182 11.1237C6.61989 11.3537 6.46826 11.5525 6.26802 11.6924C6.06777 11.8323 5.82888 11.9064 5.58456 11.9043C5.34025 11.9021 5.10267 11.824 4.90487 11.6807C4.70707 11.5373 4.55888 11.336 4.48094 11.1046L3.96652 9.52966C3.83738 9.15296 3.62442 8.81045 3.34365 8.52792C3.06288 8.24538 2.72164 8.03018 2.3456 7.89852L0.78097 7.39568C0.550885 7.31363 0.352071 7.16203 0.212128 6.96192C0.0721856 6.7618 -0.00194137 6.52311 3.86575e-05 6.27898C0.00201868 6.03485 0.0800074 5.79739 0.223177 5.59957C0.366347 5.40175 0.567595 5.25339 0.79898 5.17508L2.3456 4.67449C2.73516 4.5453 3.08893 4.32654 3.37847 4.03581C3.66801 3.74509 3.88524 3.39051 4.01267 3.0006L4.52146 1.43583C4.6025 1.20634 4.75334 1.00836 4.95145 0.868865Z" fill="#9547A5"/>
</svg>
